Coordinates
version=1
nRows=13
nColumns=22
inDegrees=yes

Units are S.I. units (second, meters, Newtons, ...)
If the header above contains a line with 'inDegrees', this indicates whether rotational values are in degrees (yes) or radians (no).

endheader
time	pelvis_tilt	pelvis_list	pelvis_rotation	pelvis_tx	pelvis_ty	pelvis_tz	hip_flexion_r	hip_adduction_r	hip_rotation_r	knee_angle_r	ankle_angle_r	subtalar_angle_r	hip_flexion_l	hip_adduction_l	hip_rotation_l	knee_angle_l	ankle_angle_l	subtalar_angle_l	lumbar_extension	lumbar_bending	lumbar_rotation
      0.01000000	      4.05280108	      1.90543660	    178.76927980	      0.12768304	      0.95581619	      1.09008961	      6.97161471	      2.29629148	     -2.97305963	    -11.79820567	     10.24059360	     -2.49923551	      7.37202118	     -3.80661811	     -7.37392210	    -12.37477050	      9.78711407	     -3.34456312	     -2.08893541	      1.16482523	     -0.55081773
      0.02000000	      4.05586645	      1.91221957	    178.75202666	      0.12759790	      0.95580517	      1.09003678	      6.97291403	      2.30654965	     -2.98526585	    -11.80296115	     10.25571861	     -2.52942114	      7.37498856	     -3.82153691	     -7.42267018	    -12.38763415	      9.77793209	     -3.33948606	     -2.09102897	      1.18373075	     -0.55905681
      0.03000000	      4.06183984	      1.90840695	    178.73781320	      0.12751218	      0.95579230	      1.08999302	      6.97366623	      2.30490227	     -2.98561172	    -11.79984650	     10.25589466	     -2.53171393	      7.37438795	     -3.81952926	     -7.42228851	    -12.39082108	      9.77936008	     -3.33936568	     -2.09453640	      1.19238936	     -0.56120403
      0.04000000	      4.06924844	      1.90505826	    178.71922499	      0.12740577	      0.95577852	      1.08993123	      6.97368301	      2.30494573	     -2.98524782	    -11.79574260	     10.25676408	     -2.53420688	      7.37309720	     -3.81935026	     -7.42399479	    -12.39397185	      9.78174583	     -3.33937971	     -2.09592794	      1.20174989	     -0.56415041
      0.05000000	      4.09477699	      1.92361275	    178.66217621	      0.12728052	      0.95573216	      1.08977865	      6.98435084	      2.34051605	     -2.90343035	    -11.77671469	     10.24599392	     -2.58206192	      7.38973860	     -3.85589380	     -7.50626701	    -12.40747148	      9.82654099	     -3.33550570	     -2.07521348	      1.23398573	     -0.51867061
      0.06000000	      4.10419318	      1.91875495	    178.64217678	      0.12715830	      0.95571256	      1.08970316	      6.98436067	      2.33959876	     -2.90613374	    -11.77059266	     10.24694603	     -2.58362799	      7.38825247	     -3.85496114	     -7.50613274	    -12.40889776	      9.82693178	     -3.33484000	     -2.07784679	      1.24213512	     -0.52204590
      0.07000000	      4.13096566	      1.92435454	    178.60354818	      0.12696923	      0.95567395	      1.08957898	      6.98163789	      2.35581691	     -2.88526508	    -11.73192226	     10.25130535	     -2.59599801	      7.38573112	     -3.87029264	     -7.54651415	    -12.38608825	      9.84046704	     -3.33099429	     -2.04938043	      1.26018080	     -0.49669293
      0.08000000	      4.15031988	      1.93108016	    178.54474159	      0.12682189	      0.95564308	      1.08941492	      6.98258337	      2.37818089	     -2.80929762	    -11.70912371	     10.23516874	     -2.61402805	      7.38787284	     -3.89205136	     -7.60379160	    -12.38984764	      9.85930750	     -3.32189457	     -2.03985805	      1.27922559	     -0.45037938
      0.09000000	      4.16046213	      1.92549178	    178.52153912	      0.12667774	      0.95562414	      1.08931307	      6.98186557	      2.37802202	     -2.81132450	    -11.70304515	     10.23577418	     -2.61506533	      7.38573394	     -3.89234737	     -7.60364718	    -12.39291002	      9.85985234	     -3.32116439	     -2.04363279	      1.28532577	     -0.45375658
      0.10000000	      4.18311142	      1.93230570	    178.45380817	      0.12648679	      0.95559193	      1.08912440	      6.97741490	      2.40302668	     -2.72137929	    -11.66860404	     10.22312536	     -2.63266255	      7.38172995	     -3.91661778	     -7.68677537	    -12.38562838	      9.88373368	     -3.30669232	     -2.02482249	      1.30449443	     -0.39734455
      0.11000000	      4.19354747	      1.92654361	    178.43013139	      0.12632968	      0.95557134	      1.08900980	      6.97583485	      2.40334018	     -2.72438957	    -11.66143852	     10.22452374	     -2.63351489	      7.37977055	     -3.91770074	     -7.68588685	    -12.38965040	      9.88415183	     -3.30587817	     -2.02784087	      1.30946102	     -0.39944598
      0.12000000	      4.21659278	      1.93379189	    178.37205393	      0.12614644	      0.95553615	      1.08882632	      6.97297282	      2.42748476	     -2.64865780	    -11.62840026	     10.22080201	     -2.64474167	      7.38576741	     -3.94236196	     -7.75633711	    -12.39610822	      9.90779153	     -3.29303797	     -2.01152733	      1.32900645	     -0.35230661
      0.13000000	      4.22548223	      1.92787396	    178.34869751	      0.12597368	      0.95551884	      1.08870132	      6.97057850	      2.42837345	     -2.65082283	    -11.62459642	     10.22152157	     -2.64532378	      7.38317115	     -3.94372374	     -7.75430916	    -12.40390078	      9.90786808	     -3.29222501	     -2.01263886	      1.33333148	     -0.35516945
